<svg xmlns="https://www.w3.org/2000/svg" xmlns:xlink="https://www.w3.org/1999/xlink" width="260" height="260" viewBox="0 0 260 260"><filter id="filter0" width="100" height="100" x="0" y="0" filterUnits="objectBoundingBox"><feImage width="220" height="220" x="40" y="0" preserveApectRatio="none" xlink:href="#symbol0"/><feComposite in="grImage1" in2="SourceAlpha" operator="in" result="grOverlay1"/><feBlend in="grOverlay1" in2="SourceGraphic" mode="normal" result="gradientOverlay1"/></filter><filter id="filter1" width="100" height="100" x="0" y="0" filterUnits="objectBoundingBox"><feImage width="220" height="220" x="20" y="20" preserveApectRatio="none" xlink:href="#symbol1"/><feComposite in="grImage1" in2="SourceAlpha" operator="in" result="grOverlay1"/><feBlend in="grOverlay1" in2="SourceGraphic" mode="normal" result="gradientOverlay1"/></filter><filter id="filter2" width="100" height="100" x="0" y="0" filterUnits="objectBoundingBox"><feImage width="220" height="220" x="0" y="40" preserveApectRatio="none" xlink:href="#symbol2"/><feComposite in="grImage1" in2="SourceAlpha" operator="in" result="grOverlay1"/><feBlend in="grOverlay1" in2="SourceGraphic" mode="normal" result="gradientOverlay1"/></filter><linearGradient id="linear_PSgrad_0" x1="100%" x2="0%" y1="83.725%" y2="16.275%"><stop offset="0%" stop-color="#EB28C9" stop-opacity="1"/><stop offset="100%" stop-color="#EC5238" stop-opacity="1"/></linearGradient><linearGradient id="linear_PSgrad_1" x1="12.322%" x2="87.678%" y1="0%" y2="100%"><stop offset="0%" stop-color="#FF2FF7" stop-opacity="1"/><stop offset="100%" stop-color="#8F72FB" stop-opacity="1"/></linearGradient><linearGradient id="linear_PSgrad_2" x1="100%" x2="0%" y1="95.02%" y2="4.98%"><stop offset="0%" stop-color="#3DDCB9" stop-opacity="1"/><stop offset="100%" stop-color="#1F9DEB" stop-opacity="1"/></linearGradient><defs><rect id="symbol0" width="220" height="220" x="0" y="0" fill="url(#linear_PSgrad_0)"/><rect id="symbol1" width="220" height="220" x="0" y="0" fill="url(#linear_PSgrad_1)"/><rect id="symbol2" width="220" height="220" x="0" y="0" fill="url(#linear_PSgrad_2)"/></defs><rect width="220" height="220" x="40" y="0" fill="#F117E0" filter="url(#filter0)" opacity=".9"/><rect width="220" height="220" x="20" y="20" fill="#FB6C6C" filter="url(#filter1)" opacity=".9"/><rect width="220" height="220" x="0" y="40" fill="#00C4DF" filter="url(#filter2)" opacity=".9"/></svg>
