<svg xmlns="https://www.w3.org/2000/svg" enable-background="new 0 0 512 512" viewBox="0 0 512 512"><linearGradient id="a" x1="245.206" x2="405.786" y1="413.127" y2="413.127" gradientTransform="matrix(1 0 0 -1 0 512)" gradientUnits="userSpaceOnUse"><stop offset="0" stop-color="#343467"/><stop offset="1" stop-color="#8176b6"/></linearGradient><path fill="url(#a)" d="M357.6,155.8l48.2-47.5c-41.1-41-97.9-66.4-160.6-66.4v67.6C289,109.5,328.8,127.2,357.6,155.8z"/><linearGradient id="b" x1="18" x2="245.206" y1="260.243" y2="260.243" gradientTransform="matrix(1 0 0 -1 0 512)" gradientUnits="userSpaceOnUse"><stop offset="0" stop-color="#f7ec13"/><stop offset="1" stop-color="#f89924"/></linearGradient><path fill="url(#b)" d="M85.8,268.4c0-87.7,71.5-159,159.4-159V41.9C119.9,41.9,18,143.5,18,268.4c0,81.6,43.5,153.3,108.6,193.2 l34.5-58.1C116,375.4,85.8,325.4,85.8,268.4z"/><linearGradient id="c" x1="453.473" x2="377.788" y1="239.16" y2="102.246" gradientTransform="matrix(1 0 0 -1 0 512)" gradientUnits="userSpaceOnUse"><stop offset="0" stop-color="#ec2227"/><stop offset="1" stop-color="#7f4b9d"/></linearGradient><path fill="url(#c)" d="M472.3,273.5h-67.8c-1.2,38.9-16.6,74.3-41.1,101.3l52.6,42.6C450,378.8,471.1,328.6,472.3,273.5z"/><linearGradient id="d" x1="115.799" x2="374.613" y1="243.553" y2="243.553" gradientTransform="matrix(1 0 0 -1 0 512)" gradientUnits="userSpaceOnUse"><stop offset="0" stop-color="#5aade0"/><stop offset=".016" stop-color="#5faee1"/><stop offset=".36" stop-color="#a4c7e9"/><stop offset=".65" stop-color="#d3dcf0"/><stop offset=".873" stop-color="#f0eaf4"/><stop offset="1" stop-color="#fef1f6"/></linearGradient><path fill="url(#d)" d="M245.2,397.5c-71.4,0-129.4-57.9-129.4-129c0-71.2,58-129,129.4-129s129.4,57.9,129.4,129 C374.6,339.6,316.6,397.5,245.2,397.5z M245.2,190.1c-43.3,0-78.6,35.1-78.6,78.4s35.2,78.4,78.6,78.4s78.6-35.1,78.6-78.4 S288.5,190.1,245.2,190.1z"/><linearGradient id="e" x1="207.876" x2="282.538" y1="243.552" y2="243.552" gradientTransform="matrix(1 0 0 -1 0 512)" gradientUnits="userSpaceOnUse"><stop offset="0" stop-color="#ec2227"/><stop offset="1" stop-color="#7f4b9d"/></linearGradient><ellipse cx="245.2" cy="268.4" fill="url(#e)" rx="37.3" ry="37.2"/><linearGradient id="f" x1="434.099" x2="117.752" y1="131.465" y2="29.417" gradientTransform="matrix(1 0 0 -1 0 512)" gradientUnits="userSpaceOnUse"><stop offset="0" stop-color="#007ac2"/><stop offset=".074" stop-color="#0073bc"/><stop offset=".251" stop-color="#0064b0"/><stop offset=".432" stop-color="#2557a7"/><stop offset=".615" stop-color="#374da1"/><stop offset=".802" stop-color="#3e469d"/><stop offset="1" stop-color="#41449c"/></linearGradient><path fill="url(#f)" d="M363.5,374.9c-29.2,32.2-71.4,52.6-118.3,52.6c-30.8,0-59.6-8.8-84-23.9l-34.6,58.1 c34.5,21.2,75.1,33.4,118.6,33.4c68.1,0,129.2-30.1,170.8-77.5L363.5,374.9z"/><linearGradient id="g" x1="232.585" x2="459.132" y1="345.285" y2="345.285" gradientTransform="matrix(1 0 0 -1 0 512)" gradientUnits="userSpaceOnUse"><stop offset="0" stop-color="#007ac2"/><stop offset="1" stop-color="#41449c"/></linearGradient><polygon fill="url(#g)" points="459.1 65.7 244.6 279.7 232.6 267.7 447.2 53.8"/><linearGradient id="h" x1="386.992" x2="466.079" y1="361.654" y2="433.937" gradientTransform="matrix(1 0 0 -1 0 512)" gradientUnits="userSpaceOnUse"><stop offset="0" stop-color="#ec2227"/><stop offset="1" stop-color="#7f4b9d"/></linearGradient><polygon fill="url(#h)" points="495 65.8 440.2 120.4 404.4 120.3 459.1 65.7"/><linearGradient id="i" x1="358.493" x2="437.579" y1="392.835" y2="465.119" gradientTransform="matrix(1 0 0 -1 0 512)" gradientUnits="userSpaceOnUse"><stop offset="0" stop-color="#ec2227"/><stop offset="1" stop-color="#7f4b9d"/></linearGradient><polygon fill="url(#i)" points="447.1 18 392.3 72.6 392.4 108.4 447.2 53.8"/></svg>